<?xml version="1.0" standalone="no"?>
<!DOCTYPE svg PUBLIC "-//W3C//DTD SVG 20010904//EN"
 "http://www.w3.org/TR/2001/REC-SVG-20010904/DTD/svg10.dtd">
<svg version="1.0" xmlns="http://www.w3.org/2000/svg"
 width="260.000000pt" height="260.000000pt" viewBox="0 0 260.000000 260.000000"
 preserveAspectRatio="xMidYMid meet">
<metadata>
Created by potrace 1.11, written by Peter Selinger 2001-2013
</metadata>
<g transform="translate(0.000000,260.000000) scale(0.100000,-0.100000)"
fill="#000000" stroke="none">
<path d="M1603 2243 c5 -8 -10 -11 -50 -11 -32 0 -80 -3 -108 -7 -27 -4 -58
-8 -67 -8 -10 -1 -18 -6 -18 -12 0 -5 -5 -3 -10 5 -6 9 -10 10 -10 3 0 -6 -9
-10 -20 -8 -11 2 -20 1 -20 -3 0 -4 -8 -8 -18 -9 -30 -2 -47 -8 -54 -17 -3 -5
-15 -10 -25 -11 -10 0 -25 -5 -33 -10 -8 -5 -24 -11 -35 -12 -11 -2 -23 -10
-28 -18 -4 -9 -12 -13 -18 -10 -5 4 -9 1 -9 -5 0 -6 -4 -9 -9 -5 -5 3 -17 -2
-25 -11 -9 -8 -16 -12 -16 -8 0 3 -6 1 -13 -5 -8 -6 -18 -7 -22 -3 -5 4 -6 3
-3 -3 6 -10 -16 -37 -24 -29 -3 2 -17 -7 -31 -20 -15 -14 -27 -23 -27 -20 0 2
-29 -25 -64 -60 -36 -35 -68 -61 -72 -57 -4 3 -4 1 0 -6 3 -6 0 -15 -7 -20 -8
-4 -22 -21 -33 -38 -10 -16 -26 -37 -34 -47 -31 -35 -41 -48 -35 -48 4 0 -1
-7 -9 -16 -9 -8 -14 -19 -11 -23 2 -5 -5 -18 -16 -30 -11 -12 -18 -25 -15 -30
3 -5 -1 -14 -9 -21 -8 -7 -12 -16 -9 -21 3 -5 0 -9 -7 -9 -7 0 -10 -3 -6 -6 3
-4 0 -22 -8 -41 -8 -19 -12 -40 -8 -46 3 -6 1 -7 -5 -3 -6 4 -11 -1 -11 -11 0
-22 -8 -68 -11 -68 -3 0 -8 -50 -11 -107 -1 -28 -6 -45 -12 -41 -6 3 -7 1 -3
-6 4 -6 10 -37 12 -69 3 -31 10 -59 15 -60 6 -3 5 -10 -2 -18 -8 -10 -8 -14 0
-14 6 0 23 -25 37 -55 13 -31 29 -53 34 -50 6 4 10 0 10 -7 0 -23 79 -84 103
-80 4 1 7 -5 7 -13 0 -8 5 -15 11 -15 5 0 7 5 4 11 -6 9 32 -8 45 -21 5 -5 36
-10 83 -12 15 -1 27 -6 27 -12 0 -6 4 -4 10 4 8 12 10 12 16 -3 3 -9 10 -15
15 -12 4 3 6 -4 4 -15 -2 -11 0 -20 5 -20 4 0 16 -22 26 -50 10 -27 22 -50 26
-50 4 0 8 -7 8 -15 0 -8 5 -15 11 -15 6 0 9 -5 7 -12 -2 -6 6 -22 19 -36 13
-14 21 -27 19 -30 -3 -2 6 -14 20 -27 13 -12 24 -27 24 -34 0 -6 5 -11 10 -11
6 0 10 -7 10 -16 0 -8 5 -12 10 -9 9 6 14 -8 11 -28 -1 -5 3 -6 8 -2 6 3 15
-4 21 -15 6 -11 15 -18 21 -15 5 4 9 1 9 -6 0 -18 45 -56 61 -50 8 2 21 12 30
22 9 10 19 15 23 12 4 -4 4 1 0 11 -4 11 -3 17 2 15 5 -3 21 8 36 23 15 15 24
28 22 28 -3 0 1 7 8 15 53 59 109 146 101 158 -3 6 -2 7 4 4 5 -3 23 23 39 58
16 36 32 65 36 65 4 0 5 6 2 14 -3 8 -1 17 5 20 6 4 7 14 4 23 -4 11 -3 14 5
9 12 -7 13 -4 16 32 1 9 5 23 9 30 5 6 5 17 2 22 -4 6 -2 16 3 23 6 7 12 23
14 37 1 14 8 28 13 32 6 5 5 8 -4 8 -10 0 -11 3 -3 13 6 7 9 22 8 32 -2 11 1
26 7 33 6 8 5 12 -4 12 -9 0 -10 3 -4 8 6 4 11 43 11 87 1 90 12 203 24 225 4
8 5 21 3 28 -3 6 0 12 5 12 5 0 8 11 7 25 -2 14 0 25 5 25 5 0 11 18 15 39 4
22 13 45 21 52 8 6 14 20 14 30 0 10 5 21 10 24 6 4 8 11 5 16 -4 5 -1 9 6 9
7 0 9 3 6 7 -4 3 3 17 15 30 12 13 18 23 14 23 -6 0 1 11 32 45 6 7 12 18 12
23 0 5 14 23 30 40 17 18 30 34 30 36 0 10 79 86 89 86 7 0 10 4 6 9 -3 5 4
12 15 16 11 3 19 11 17 18 -1 6 3 11 9 12 6 0 18 8 28 18 10 9 22 17 27 17 5
0 9 7 9 15 0 8 -7 15 -15 15 -8 0 -20 9 -27 19 -6 10 -18 17 -25 14 -7 -3 -13
0 -13 6 0 6 -6 8 -14 5 -8 -3 -17 -1 -21 5 -3 6 -17 11 -31 11 -17 0 -23 4
-18 12 5 8 2 9 -9 5 -9 -3 -19 -2 -22 4 -4 5 -11 7 -16 4 -5 -4 -9 -2 -9 2 0
5 -10 9 -22 10 -13 0 -39 3 -58 6 -77 13 -107 17 -145 18 -22 1 -46 7 -54 13
-11 8 -13 8 -8 -1z m-63 -123 c0 6 5 8 13 3 16 -10 38 -10 60 0 11 5 17 4 17
-4 0 -9 3 -9 14 0 9 8 16 8 20 2 4 -5 14 -10 24 -10 60 0 92 -4 92 -9 0 -4 19
-8 42 -9 23 -1 44 -6 46 -12 2 -6 8 -9 12 -6 5 3 8 -3 7 -14 0 -11 -4 -19 -7
-18 -5 2 -44 -39 -96 -98 -14 -16 -30 -40 -35 -53 -5 -14 -14 -20 -21 -16 -6
4 -8 3 -5 -3 4 -6 -3 -22 -14 -37 -11 -14 -17 -26 -13 -26 4 0 -1 -7 -12 -16
-10 -8 -13 -12 -5 -9 14 8 -15 -44 -32 -56 -5 -3 -8 -8 -7 -10 2 -5 -17 -55
-35 -92 -8 -15 -11 -35 -8 -44 4 -10 2 -14 -4 -10 -6 4 -13 0 -17 -8 -3 -8 0
-15 6 -15 7 0 7 -5 -2 -15 -12 -14 -15 -27 -26 -115 -3 -25 -10 -48 -16 -51
-7 -4 -6 -9 1 -13 6 -4 11 -12 11 -17 0 -6 -6 -7 -12 -3 -9 5 -9 2 1 -9 7 -10
9 -17 3 -17 -6 0 -8 -13 -5 -31 2 -17 1 -29 -4 -26 -4 3 -7 -34 -7 -81 1 -48
-3 -93 -9 -99 -6 -9 -6 -13 2 -13 7 0 9 -4 6 -10 -6 -9 -9 -22 -19 -77 -3 -12
-9 -31 -16 -42 -6 -12 -8 -21 -4 -21 3 0 1 -6 -5 -13 -6 -8 -8 -17 -4 -20 3
-4 2 -7 -4 -7 -5 0 -10 -6 -10 -12 -1 -25 -79 -176 -98 -190 -7 -5 -7 -8 0 -8
6 0 1 -7 -9 -15 -11 -8 -16 -15 -11 -15 4 0 -2 -8 -13 -19 -12 -10 -20 -20
-18 -22 2 -2 -8 -16 -23 -30 l-27 -26 -28 23 c-15 13 -24 24 -21 24 3 0 1 9
-5 20 -6 12 -16 18 -23 14 -7 -4 -9 -4 -5 1 4 4 0 14 -8 22 -8 8 -11 19 -8 25
4 7 2 8 -4 4 -7 -4 -12 -1 -12 9 0 9 -4 14 -9 10 -6 -3 -8 4 -6 15 2 11 0 18
-5 15 -5 -3 -12 6 -16 20 -4 15 -11 22 -18 18 -6 -3 -8 -3 -4 1 3 4 -3 28 -14
53 -20 44 -17 58 12 65 15 3 30 13 57 38 9 8 18 14 20 12 7 -5 62 51 57 59 -3
5 1 9 9 9 13 0 30 24 24 34 -1 2 6 13 16 23 9 11 14 23 10 26 -3 4 -1 7 6 7 7
0 10 4 6 9 -3 6 3 25 14 44 11 19 17 38 14 41 -8 8 -10 96 -2 96 4 0 5 9 2 20
-3 11 1 28 8 37 8 10 9 14 2 10 -8 -5 -11 0 -10 13 1 11 4 20 8 20 4 0 6 15 5
34 -1 19 2 32 5 30 4 -2 10 11 14 29 8 35 11 44 15 52 1 3 3 14 4 25 0 12 8
25 16 30 8 5 11 10 6 10 -5 0 -2 8 5 17 12 14 12 16 -1 8 -8 -5 -5 4 8 19 12
16 22 35 22 42 0 8 5 14 12 14 6 0 9 3 5 6 -3 3 -1 11 4 18 30 36 107 156 101
159 -18 10 -193 -11 -209 -25 -9 -8 -13 -7 -14 3 0 10 -2 11 -6 1 -2 -6 -9
-10 -14 -6 -5 3 -9 0 -9 -5 0 -6 -3 -10 -7 -9 -10 2 -41 -10 -75 -28 -16 -8
-28 -12 -28 -7 0 4 -7 0 -15 -11 -7 -10 -18 -15 -23 -12 -6 3 -12 -1 -16 -9
-3 -8 -13 -15 -21 -15 -9 0 -13 -4 -10 -10 3 -5 2 -10 -3 -10 -12 0 -127 -110
-115 -110 4 0 3 -4 -2 -8 -16 -11 -57 -72 -49 -72 4 0 -1 -9 -10 -19 -11 -12
-15 -25 -10 -33 4 -7 3 -9 -1 -5 -9 7 -29 -45 -42 -108 -4 -16 -7 -62 -7 -102
-1 -39 -5 -69 -10 -65 -5 3 -6 -1 -1 -8 4 -7 10 -38 12 -68 1 -30 6 -66 9 -81
3 -14 7 -38 9 -54 3 -25 0 -27 -23 -23 -15 2 -29 5 -32 6 -3 1 -8 2 -12 1 -5
0 -8 4 -8 10 0 5 -4 8 -9 4 -6 -3 -19 5 -30 17 -12 12 -21 18 -21 14 0 -4 -8
1 -18 11 -30 29 -62 80 -62 98 0 9 -5 13 -11 9 -8 -4 -9 0 -4 15 3 11 3 21 -2
21 -4 0 -8 36 -8 80 0 44 4 80 9 80 5 0 2 8 -5 17 -8 9 -9 14 -3 10 16 -10 25
18 11 33 -9 10 -9 11 1 6 8 -5 12 0 12 13 0 33 23 111 33 111 5 0 7 7 3 15 -3
8 -2 15 3 15 5 0 12 12 15 26 4 14 18 43 31 65 14 21 25 43 25 49 0 5 5 10 11
10 5 0 8 4 4 9 -3 6 4 15 15 21 11 6 18 15 15 20 -3 5 3 15 15 22 11 7 20 19
20 27 0 8 3 12 6 8 8 -8 33 16 27 26 -2 4 3 10 13 14 9 3 32 21 50 40 19 18
34 31 34 28 0 -7 24 12 48 38 9 9 24 17 34 17 10 0 18 4 18 10 0 5 11 12 25
16 14 3 22 11 18 17 -4 6 0 8 11 4 10 -4 19 -1 22 8 4 8 9 13 13 11 3 -2 24 4
45 15 21 10 42 16 47 14 4 -3 10 -1 14 5 4 6 11 8 16 5 5 -4 9 -1 9 6 0 6 8 9
20 6 11 -3 20 -1 20 4 0 4 7 6 15 3 8 -4 15 -2 15 4 0 5 14 8 31 6 16 -2 28 0
25 4 -2 4 11 6 30 4 21 -3 34 0 34 7 0 9 5 9 20 1 14 -8 20 -8 20 0z m-242
-447 c-6 -8 -8 -16 -5 -19 3 -4 0 -13 -8 -21 -8 -8 -15 -23 -15 -33 0 -10 -5
-22 -10 -25 -6 -4 -8 -11 -5 -16 4 -5 1 -9 -6 -9 -7 0 -9 -3 -6 -6 3 -4 2 -15
-4 -25 -5 -10 -11 -31 -14 -46 -5 -32 -13 -68 -15 -68 -1 0 -2 -23 -3 -52 -1
-28 -5 -54 -9 -58 -3 -4 -2 -20 2 -36 5 -16 5 -29 1 -29 -4 0 -7 -16 -8 -35 0
-19 -4 -42 -8 -52 -5 -10 -9 -21 -9 -25 -1 -4 -9 -16 -18 -28 -10 -11 -14 -20
-10 -20 6 0 -36 -40 -88 -83 -23 -19 -46 -16 -48 7 -6 54 -8 61 -15 67 -4 3
-9 38 -10 77 -1 40 -5 72 -9 72 -4 0 -3 14 2 30 5 19 5 30 -1 30 -6 0 -7 6 -2
13 4 6 8 19 8 27 0 8 3 20 6 25 3 6 5 17 4 25 0 8 5 21 12 28 7 8 11 17 8 22
-5 8 16 52 53 108 9 14 42 50 72 79 80 76 88 82 95 75 3 -4 9 -2 13 3 4 6 16
15 27 21 24 14 40 -3 23 -23z"/>
</g>
</svg>
